<svg width="71" height="71" viewBox="0 0 71 71" fill="none" xmlns="http://www.w3.org/2000/svg">
<g clip-path="url(#clip0)">
<path d="M58.084 66.4193H54.143L53.6487 64.9364C52.9397 64.7396 52.2592 64.4578 51.6184 64.0949L50.2188 64.7944L47.4314 62.0058L48.1309 60.6063C47.768 59.9638 47.4862 59.2861 47.2894 58.5771L45.8065 58.0839V54.1429L47.2894 53.6486C47.4862 52.9396 47.768 52.2608 48.1309 51.6183L47.4314 50.2187L50.2188 47.4313L51.6184 48.1308C52.2609 47.7679 52.9397 47.4861 53.6487 47.2893L54.1419 45.8064H58.0828L58.5771 47.2893C59.2861 47.4861 59.9666 47.7679 60.6074 48.1308L62.007 47.4313L64.7944 50.2187L64.0949 51.6183C64.4578 52.2619 64.7396 52.9396 64.9365 53.6486L66.4194 54.1418V58.0828L64.9365 58.5771C64.7396 59.2861 64.4578 59.9649 64.0949 60.6063L64.7944 62.0058L62.007 64.7944L60.6074 64.0949C59.965 64.4578 59.2861 64.7396 58.5771 64.9364L58.084 66.4193Z" fill="#FD9B0D"/>
<path d="M56.1129 60.6935C53.5866 60.6935 51.5323 58.6392 51.5323 56.1129C51.5323 53.5866 53.5866 51.5322 56.1129 51.5322C58.6392 51.5322 60.6935 53.5866 60.6935 56.1129C60.6935 58.6392 58.6392 60.6935 56.1129 60.6935ZM56.1129 53.8225C54.8498 53.8225 53.8226 54.8497 53.8226 56.1129C53.8226 57.376 54.8498 58.4032 56.1129 58.4032C57.376 58.4032 58.4032 57.376 58.4032 56.1129C58.4032 54.8497 57.376 53.8225 56.1129 53.8225Z" fill="#333333"/>
<path d="M67.5645 0C65.6706 0 64.129 1.54161 64.129 3.43548C64.129 3.49867 64.1441 3.55682 64.1475 3.61889L56.3589 6.86426C55.7304 6.17034 54.8302 5.72581 53.8226 5.72581C51.9287 5.72581 50.3871 7.26741 50.3871 9.16129C50.3871 9.47833 50.4441 9.77972 50.5247 10.0716L42.9536 15.3713C42.4442 15.0716 41.8593 14.8871 41.2258 14.8871C39.3319 14.8871 37.7903 16.4287 37.7903 18.3226C37.7903 19.2469 38.1616 20.0828 38.7554 20.7001L34.7703 28.6704C34.6333 28.6542 34.498 28.629 34.3548 28.629C33.8259 28.629 33.331 28.7582 32.8831 28.9735L27.721 23.8113L26.1016 25.4306L31.2638 30.5928C31.0485 31.0407 30.9194 31.5355 30.9194 32.0645C30.9194 33.9584 32.461 35.5 34.3548 35.5C36.2487 35.5 37.7903 33.9584 37.7903 32.0645C37.7903 31.1402 37.419 30.3043 36.8252 29.687L40.8103 21.7167C40.9473 21.7329 41.0827 21.7581 41.2258 21.7581C43.1197 21.7581 44.6613 20.2165 44.6613 18.3226C44.6613 17.901 44.5741 17.5029 44.4359 17.1293L51.8336 11.9509C52.3956 12.3541 53.0795 12.5968 53.8226 12.5968C55.7165 12.5968 57.2581 11.0552 57.2581 9.16129C57.2581 9.09811 57.243 9.03995 57.2396 8.97789L65.0282 5.73252C65.6567 6.42643 66.5569 6.87097 67.5645 6.87097C69.4584 6.87097 71 5.32936 71 3.43548C71 1.54161 69.4584 0 67.5645 0ZM34.3548 33.2097C33.7241 33.2097 33.2097 32.6952 33.2097 32.0645C33.2097 31.4338 33.7241 30.9194 34.3548 30.9194C34.9856 30.9194 35.5 31.4338 35.5 32.0645C35.5 32.6952 34.9856 33.2097 34.3548 33.2097ZM41.2258 19.4677C40.5951 19.4677 40.0806 18.9533 40.0806 18.3226C40.0806 17.6918 40.5951 17.1774 41.2258 17.1774C41.8565 17.1774 42.371 17.6918 42.371 18.3226C42.371 18.9533 41.8565 19.4677 41.2258 19.4677ZM53.8226 10.3065C53.1918 10.3065 52.6774 9.79202 52.6774 9.16129C52.6774 8.53056 53.1918 8.01613 53.8226 8.01613C54.4533 8.01613 54.9677 8.53056 54.9677 9.16129C54.9677 9.79202 54.4533 10.3065 53.8226 10.3065ZM67.5645 4.58065C66.9338 4.58065 66.4194 4.06622 66.4194 3.43548C66.4194 2.80475 66.9338 2.29032 67.5645 2.29032C68.1953 2.29032 68.7097 2.80475 68.7097 3.43548C68.7097 4.06622 68.1953 4.58065 67.5645 4.58065Z" fill="#333333"/>
<path d="M67.5645 32.0645H49.2419C47.3481 32.0645 45.8064 33.6061 45.8064 35.4999C45.8064 36.3829 46.1509 37.1808 46.6994 37.7903C46.1498 38.3997 45.8064 39.1977 45.8064 40.0806C45.8064 40.6246 45.9451 41.1329 46.1716 41.5909C45.7136 41.3644 45.2054 41.2257 44.6613 41.2257H26.3387C24.4448 41.2257 22.9032 42.7674 22.9032 44.6612C22.9032 45.2053 23.0419 45.7136 23.2684 46.1715C22.8104 45.9451 22.3021 45.8064 21.7581 45.8064H3.43548C1.54161 45.8064 0 47.348 0 49.2419C0 50.1248 0.344443 50.9227 0.89298 51.5322C0.344443 52.1417 0 52.9396 0 53.8225C0 54.7054 0.344443 55.5034 0.89298 56.1128C0.344443 56.7223 0 57.5203 0 58.4032C0 59.2861 0.344443 60.084 0.89298 60.6935C0.344443 61.303 0 62.1009 0 62.9838C0 63.8667 0.344443 64.6646 0.89298 65.2741C0.344443 65.8836 0 66.6815 0 67.5645C0 69.4583 1.54161 70.9999 3.43548 70.9999H21.7581C22.641 70.9999 23.4389 70.6555 24.0484 70.107C24.6579 70.6566 25.4558 70.9999 26.3387 70.9999H44.6613C46.2141 70.9999 47.5141 69.9577 47.9385 68.5413C50.2864 70.0907 53.094 70.9999 56.1129 70.9999C64.3214 70.9999 71 64.3213 71 56.1128C71 53.0939 70.0908 50.2864 68.5414 47.9385C69.9577 47.5141 71 46.214 71 44.6612C71 43.7783 70.6556 42.9804 70.107 42.3709C70.6567 41.7614 71 40.9635 71 40.0806C71 39.1977 70.6556 38.3997 70.107 37.7903C70.6567 37.1808 71 36.3829 71 35.4999C71 33.6061 69.4584 32.0645 67.5645 32.0645ZM49.2419 34.3548H67.5645C68.1953 34.3548 68.7097 34.8692 68.7097 35.4999C68.7097 36.1307 68.1953 36.6451 67.5645 36.6451H49.2419C48.6112 36.6451 48.0968 36.1307 48.0968 35.4999C48.0968 34.8692 48.6112 34.3548 49.2419 34.3548ZM68.7097 40.0806C68.7097 40.7113 68.1953 41.2257 67.5645 41.2257H49.2419C48.6112 41.2257 48.0968 40.7113 48.0968 40.0806C48.0968 39.4498 48.6112 38.9354 49.2419 38.9354H67.5645C68.1953 38.9354 68.7097 39.4498 68.7097 40.0806ZM2.29032 62.9838C2.29032 62.3531 2.80475 61.8386 3.43548 61.8386H21.7581C22.3888 61.8386 22.9032 62.3531 22.9032 62.9838C22.9032 63.6145 22.3888 64.129 21.7581 64.129H3.43548C2.80475 64.129 2.29032 63.6145 2.29032 62.9838ZM2.29032 58.4032C2.29032 57.7724 2.80475 57.258 3.43548 57.258H21.7581C22.3888 57.258 22.9032 57.7724 22.9032 58.4032C22.9032 59.0339 22.3888 59.5483 21.7581 59.5483H3.43548C2.80475 59.5483 2.29032 59.0339 2.29032 58.4032ZM2.29032 53.8225C2.29032 53.1918 2.80475 52.6774 3.43548 52.6774H21.7581C22.3888 52.6774 22.9032 53.1918 22.9032 53.8225C22.9032 54.4533 22.3888 54.9677 21.7581 54.9677H3.43548C2.80475 54.9677 2.29032 54.4533 2.29032 53.8225ZM41.284 57.258C41.3438 58.0403 41.4651 58.8041 41.6424 59.5483H26.3387C25.708 59.5483 25.1935 59.0339 25.1935 58.4032C25.1935 57.7724 25.708 57.258 26.3387 57.258H41.284ZM25.1935 62.9838C25.1935 62.3531 25.708 61.8386 26.3387 61.8386H42.3743C42.7098 62.6427 43.1219 63.4043 43.5883 64.129H26.3387C25.708 64.129 25.1935 63.6145 25.1935 62.9838ZM41.284 54.9677H26.3387C25.708 54.9677 25.1935 54.4533 25.1935 53.8225C25.1935 53.1918 25.708 52.6774 26.3387 52.6774H41.6413C41.4651 53.4216 41.3438 54.1854 41.284 54.9677ZM42.3743 50.387H26.3387C25.708 50.387 25.1935 49.8726 25.1935 49.2419C25.1935 48.6111 25.708 48.0967 26.3387 48.0967H43.5883C43.1219 48.8214 42.7098 49.583 42.3743 50.387ZM47.9385 43.6844C47.8837 43.4999 47.8161 43.3215 47.7328 43.1509C47.9469 43.2561 48.17 43.3411 48.406 43.4003C48.2489 43.4954 48.0901 43.5848 47.9385 43.6844ZM26.3387 43.5161H44.6613C45.292 43.5161 45.8064 44.0305 45.8064 44.6612C45.8064 45.292 45.292 45.8064 44.6613 45.8064H26.3387C25.708 45.8064 25.1935 45.292 25.1935 44.6612C25.1935 44.0305 25.708 43.5161 26.3387 43.5161ZM3.43548 48.0967H21.7581C22.3888 48.0967 22.9032 48.6111 22.9032 49.2419C22.9032 49.8726 22.3888 50.387 21.7581 50.387H3.43548C2.80475 50.387 2.29032 49.8726 2.29032 49.2419C2.29032 48.6111 2.80475 48.0967 3.43548 48.0967ZM21.7581 68.7096H3.43548C2.80475 68.7096 2.29032 68.1952 2.29032 67.5645C2.29032 66.9337 2.80475 66.4193 3.43548 66.4193H21.7581C22.3888 66.4193 22.9032 66.9337 22.9032 67.5645C22.9032 68.1952 22.3888 68.7096 21.7581 68.7096ZM44.6613 68.7096H26.3387C25.708 68.7096 25.1935 68.1952 25.1935 67.5645C25.1935 66.9337 25.708 66.4193 26.3387 66.4193H44.6613C45.292 66.4193 45.8064 66.9337 45.8064 67.5645C45.8064 68.1952 45.292 68.7096 44.6613 68.7096ZM56.1129 68.7096C49.1676 68.7096 43.5161 63.0582 43.5161 56.1128C43.5161 49.1675 49.1676 43.5161 56.1129 43.5161C63.0582 43.5161 68.7097 49.1675 68.7097 56.1128C68.7097 63.0582 63.0582 68.7096 56.1129 68.7096ZM67.5645 45.8064H66.8303C65.9899 44.9313 65.0416 44.1653 64.0099 43.5161H67.5645C68.1953 43.5161 68.7097 44.0305 68.7097 44.6612C68.7097 45.292 68.1953 45.8064 67.5645 45.8064Z" fill="#333333"/>
<path d="M62.9839 29.7742H65.2742V19.4677H70.0092L61.8387 9.66284L53.6682 19.4677H58.4032V29.7742H60.6935V17.1774H58.5575L61.8387 13.2404L65.1199 17.1774H62.9839V29.7742Z" fill="#333333"/>
<path d="M14.8871 43.5161C13.7844 43.5161 12.7433 42.9306 12.1673 41.9907L2.13432 25.5737C0.738651 23.2879 0 20.6643 0 17.9859C0 9.96307 6.52764 3.43542 14.5505 3.43542H15.2237C23.2465 3.43542 29.7742 9.96307 29.7742 17.9859C29.7742 20.6643 29.0355 23.2879 27.6399 25.5737L17.6069 41.9907C17.0309 42.9306 15.9898 43.5161 14.8871 43.5161Z" fill="#FD9B0D"/>
<path d="M18.2767 17.9401C19.0087 17.1282 19.4677 16.0641 19.4677 14.8871V12.5968C19.4677 10.0705 17.4134 8.01611 14.8871 8.01611C12.3608 8.01611 10.3065 10.0705 10.3065 12.5968V14.8871C10.3065 16.0641 10.7655 17.1282 11.4975 17.9401C8.76988 19.2206 6.87097 21.9862 6.87097 25.1935V26.3387H22.9032V25.1935C22.9032 21.9862 21.0043 19.2206 18.2767 17.9401ZM12.5968 14.8871V12.5968C12.5968 11.3336 13.624 10.3064 14.8871 10.3064C16.1502 10.3064 17.1774 11.3336 17.1774 12.5968V14.8871C17.1774 16.1502 16.1502 17.1774 14.8871 17.1774C13.624 17.1774 12.5968 16.1502 12.5968 14.8871ZM9.27704 24.0484C9.80824 21.4388 12.1226 19.4677 14.8871 19.4677C17.6516 19.4677 19.966 21.4388 20.4972 24.0484H9.27704Z" fill="#333333"/>
</g>
<defs>
<clipPath id="clip0">
<rect width="71" height="71" fill="white"/>
</clipPath>
</defs>
</svg>
