<svg width="71" height="71" viewBox="0 0 71 71" fill="none" xmlns="http://www.w3.org/2000/svg">
<path d="M58.4033 8.01608C57.1401 8.01608 56.1129 6.98879 56.1129 5.72566V4.58057H37.7902V5.72566C37.7902 6.98879 36.7629 8.01608 35.4998 8.01608H34.3547V33.2095H59.5481V8.01608H58.4033ZM40.0806 32.0645C40.0806 28.2694 43.1566 25.1934 46.9516 25.1934C50.7467 25.1934 53.8227 28.2694 53.8227 32.0645H40.0806Z" fill="#FD9B0D"/>
<path d="M65.2741 26.3388H64.129V0H29.7741V26.3388H28.629C25.4719 26.3388 22.9033 28.9074 22.9033 32.0645V43.5161H4.275C1.91811 43.5161 0 45.4342 0 47.7909V66.7238C0 69.0817 1.91811 70.9998 4.275 70.9998H34.3549H34.6608H65.2743C68.4314 70.9998 71 68.4312 71 65.2741V59.5484V48.0967V41.2257V32.0645C71 28.9074 68.4314 26.3388 65.2741 26.3388ZM32.0645 2.29042H61.8385V30.9194H54.876C54.317 27.0408 50.9813 24.0484 46.9514 24.0484C42.9215 24.0484 39.5858 27.0406 39.0268 30.9194H32.0642L32.0645 2.29042ZM52.5617 30.9194H41.3402C41.8715 28.3096 44.186 26.3388 46.9502 26.3388C49.7144 26.3388 52.0304 28.3094 52.5617 30.9194ZM28.629 28.629H29.7741V30.9194H28.629V33.2098H65.2741V30.9194H64.129V28.629H65.2741C67.1683 28.629 68.7096 30.1703 68.7096 32.0645V36.6749C67.7499 35.9478 66.5682 35.5 65.2741 35.5H28.629C26.735 35.5 25.1935 33.9587 25.1935 32.0645C25.1935 30.1703 26.735 28.629 28.629 28.629ZM4.275 45.8063H34.6596C35.7543 45.8063 36.6453 46.6974 36.6453 47.7909V59.5481H2.29042V47.7909C2.29042 46.6974 3.18123 45.8063 4.275 45.8063ZM36.6451 64.129H2.29042V61.8385H36.6453L36.6451 64.129ZM34.3549 68.7096H4.275C3.18147 68.7096 2.29042 67.8185 2.29042 66.725V66.4192H36.6453V66.725C36.6453 67.8185 35.7543 68.7096 34.6608 68.7096H34.3549ZM68.7096 57.2579H52.6773C50.7834 57.2579 49.2418 55.7166 49.2418 53.8224C49.2418 51.9282 50.7831 50.3869 52.6773 50.3869H68.7096V57.2579ZM68.7096 48.0967H52.6773C49.5202 48.0967 46.9516 50.6653 46.9516 53.8224C46.9516 56.9795 49.5202 59.5481 52.6773 59.5481H68.7096V65.2738C68.7096 67.168 67.1683 68.7093 65.2741 68.7093H38.4236C38.7397 68.114 38.9355 67.445 38.9355 66.7248V47.7906C38.9355 45.434 37.0174 43.5156 34.6605 43.5156H25.1935V36.6148C26.1531 37.3419 27.3349 37.7897 28.629 37.7897H65.2741C67.1683 37.7897 68.7096 39.331 68.7096 41.2252V48.0967Z" fill="#333333"/>
<path d="M52.6773 54.9675C53.3097 54.9675 53.8224 54.4549 53.8224 53.8225C53.8224 53.19 53.3097 52.6774 52.6773 52.6774C52.0449 52.6774 51.5322 53.19 51.5322 53.8225C51.5322 54.4549 52.0449 54.9675 52.6773 54.9675Z" fill="#333333"/>
<path d="M12.5967 48.0967H4.58063V50.3871H12.5967V48.0967Z" fill="#333333"/>
<path d="M12.5967 52.6774H6.87103V54.9678H12.5967V52.6774Z" fill="#333333"/>
<circle cx="10.2895" cy="26.8473" r="8.78951" fill="white" stroke="#333333" stroke-width="3"/>
<path d="M19.079 19.7511C19.079 24.6054 15.1438 28.5406 10.2895 28.5406C5.4352 28.5406 1.5 24.6054 1.5 19.7511C1.5 14.8967 5.4352 10.9615 10.2895 10.9615C15.1438 10.9615 19.079 14.8967 19.079 19.7511Z" fill="white" stroke="#333333" stroke-width="3"/>
<path d="M19.079 12.6549C19.079 17.5092 15.1438 21.4444 10.2895 21.4444C5.4352 21.4444 1.5 17.5092 1.5 12.6549C1.5 7.80056 5.4352 3.86536 10.2895 3.86536C15.1438 3.86536 19.079 7.80056 19.079 12.6549Z" fill="white" stroke="#333333" stroke-width="3"/>
</svg>
