<svg width="110" height="110" viewBox="0 0 110 110" fill="none" xmlns="http://www.w3.org/2000/svg">
<path d="M77.3232 22.5002L77.0633 22.3703C76.9934 19.3977 74.5529 17 71.5643 17H63.5807C59.0243 17 55.2869 20.5683 55.0159 25.0572L54.7769 25.2963C53.3403 26.7329 52.5484 28.6427 52.5484 30.6739C52.5484 31.4939 52.6796 32.303 52.9382 33.0789L53.3574 34.3366C54.0316 33.4895 55.0589 32.9355 56.2258 32.9355H57.4516L57.622 32.9343C58.1344 30.5697 59.9314 28.6378 62.3549 28.0323C65.5787 29.6442 69.1348 30.4839 72.7399 30.4839H77.0645V32.9355H78.2903C79.331 32.9355 80.2651 33.3719 80.9344 34.0657L81.0803 33.7739C81.6613 32.6106 81.9678 31.3125 81.9678 30.0156C81.9678 26.8138 80.1879 23.9332 77.3232 22.5002Z" fill="#FD9B0D"/>
<path d="M43.9678 28.0323H35.3871V19.4516C35.3871 18.775 34.838 18.2258 34.1613 18.2258H29.2581C28.5814 18.2258 28.0323 18.775 28.0323 19.4516V28.0323H19.4516C18.775 28.0323 18.2258 28.5814 18.2258 29.2581V34.1613C18.2258 34.838 18.775 35.3871 19.4516 35.3871H28.0323V43.9678C28.0323 44.6444 28.5814 45.1936 29.2581 45.1936H34.1613C34.838 45.1936 35.3871 44.6444 35.3871 43.9678V35.3871H43.9678C44.6444 35.3871 45.1936 34.838 45.1936 34.1613V29.2581C45.1936 28.5814 44.6444 28.0323 43.9678 28.0323Z" fill="#FD9B0D"/>
<path d="M82.0008 53.1466L73.1885 51.493L72.8245 49.7989C75.7541 48.0767 77.8257 45.0501 78.2192 41.5149H78.2903C80.9945 41.5149 83.1936 39.3158 83.1936 36.6117C83.1936 33.9076 80.9945 31.7085 78.2903 31.7085V29.2568H72.7399C69.3432 29.2568 65.9416 28.4539 62.904 26.9339L62.497 26.7329L62.0582 26.8432C59.5061 27.4807 57.5313 29.3439 56.683 31.7097H56.2258C53.5217 31.7097 51.3226 33.9088 51.3226 36.6129C51.3226 39.317 53.5217 41.5161 56.2258 41.5161H56.2981C56.6904 45.0501 58.762 48.0779 61.6929 49.8001L61.3288 51.4942L52.5165 53.1478C47.4895 54.0892 43.5632 57.687 42.1205 62.4223L35.0304 54.1346L31.1715 50.2745C30.2681 49.3711 29.0644 48.8722 27.7846 48.8722C26.0342 48.8722 24.4529 49.8063 23.6046 51.3238H20.6774C18.6499 51.3238 17 52.9737 17 55.0012C17 58.3808 19.7495 61.1303 23.129 61.1303H28.6452L37.7235 73.2326C38.9468 74.8642 40.8946 75.8387 42.9344 75.8387C44.7008 75.8387 46.4169 75.1057 47.6415 73.8272L48.871 72.5425V93H93V66.3988C93 59.9155 88.375 54.3417 82.0008 53.1466ZM90.5484 66.3988V83.1935H85.6452V67.2581C85.6452 66.2909 86.0374 65.3421 86.7239 64.6581L87.7388 63.6419L86.0031 61.9086L84.9894 62.9248C83.8322 64.082 83.1936 65.6216 83.1936 67.2581V90.5484H68.4839V63.0156L74.6129 65.7393L77.0645 66.829L79.8741 68.0781L77.6652 54.8272L81.5485 55.5553C86.7631 56.5335 90.5484 61.0935 90.5484 66.3988ZM58.0253 63.892L60.4597 54.1505L61.7235 53.9139L65.5211 60.559L58.0253 63.892ZM72.7926 53.9139L75.0995 54.3466L76.7066 63.9864L68.995 60.559L72.7926 53.9139ZM75.8387 37.8387H70.9355V35.3871H75.8387V37.8387ZM80.7419 36.6129C80.7419 37.965 79.6424 39.0645 78.2903 39.0645V37.8387V35.3871V34.1613C79.6424 34.1613 80.7419 35.2608 80.7419 36.6129ZM62.2433 29.3414C65.5076 30.8921 69.125 31.7097 72.7399 31.7097H75.8387V32.9355H70.9355C70.0321 32.9355 69.25 33.4319 68.8246 34.1613H65.6903C65.2649 33.4319 64.4828 32.9355 63.5794 32.9355H58.8736C59.3271 31.2708 60.5688 29.9065 62.2433 29.3414ZM58.6774 35.3871H63.5806L63.5831 37.8387H58.6774V35.3871ZM53.7742 36.6129C53.7742 35.2608 54.8737 34.1613 56.2258 34.1613H56.2381C56.2381 34.2128 56.2258 34.2606 56.2258 34.3121V35.3871V37.8387V39.0645C54.8737 39.0645 53.7742 37.965 53.7742 36.6129ZM58.6774 40.2903H63.5806C64.9327 40.2903 66.0323 39.1908 66.0323 37.8387V36.6129H68.4839V37.8387C68.4839 39.1908 69.5834 40.2903 70.9355 40.2903H75.8387C75.8387 45.0207 71.9885 48.871 67.2581 48.871C62.5277 48.871 58.6774 45.0207 58.6774 40.2903ZM67.2581 51.3226C68.3993 51.3226 69.5001 51.1485 70.5371 50.8249L70.8644 52.3474L67.2581 58.659L63.6517 52.3474L63.979 50.8249C65.0161 51.1485 66.1168 51.3226 67.2581 51.3226ZM19.4516 55.0012C19.4516 54.3246 20.0008 53.7754 20.6774 53.7754H25.1136L25.6922 52.6158C26.0906 51.8203 26.8923 51.3238 27.7822 51.3238C28.4074 51.3238 28.9945 51.5665 29.4358 52.0078L32.4305 54.9988L28.7494 58.6799H23.129C21.1015 58.6786 19.4516 57.0287 19.4516 55.0012ZM49.528 62.9248L48.513 61.9086L46.7773 63.6419L47.7935 64.6581C48.4787 65.3434 48.871 66.2909 48.871 67.2581V68.995L45.8702 72.1331C45.1077 72.9299 44.0376 73.3871 42.9344 73.3871C41.6632 73.3871 40.4485 72.7803 39.6848 71.7629L30.8761 60.0185L34.0902 56.8044L41.4132 65.3679L41.5247 65.4831C42.2982 66.1781 42.7419 67.1747 42.7419 68.2154V68.4839H45.1935V68.2154C45.1935 66.9626 44.8013 65.754 44.1026 64.739C44.8013 60.1594 48.3819 56.4146 52.9676 55.5553L57.8095 54.6482L54.4276 68.1725L57.4516 66.8278C57.4516 66.8278 60.045 65.6751 59.9032 65.7381L66.0323 63.0143V90.5484H51.3226V67.2581C51.3226 65.6216 50.6839 64.082 49.528 62.9248ZM85.6452 90.5484V85.6452H90.5484V90.5484H85.6452Z" fill="black"/>
<path d="M70.9355 42.7419H68.4839C68.4839 43.4186 67.9347 43.9677 67.258 43.9677C66.5814 43.9677 66.0322 43.4186 66.0322 42.7419H63.5806C63.5806 44.7694 65.2306 46.4194 67.258 46.4194C69.2855 46.4194 70.9355 44.7694 70.9355 42.7419Z" fill="black"/>
</svg>
