<svg width="154" height="50" viewBox="0 0 154 50" fill="none" xmlns="http://www.w3.org/2000/svg">
    <g clip-path="url(#clip0)">
        <path d="M46.306 1.174C40.033 -1.699 32.39 0.818004 27.206 7.435C21.984 0.855004 14.316 -1.625 8.068 1.297C0.328001 4.894 -2.302 15.747 2.198 25.483C5.928 33.561 13.216 40.363 18.792 44.033C21.752 46.035 24.527 47.275 26.582 47.52C26.862 47.557 27.132 47.57 27.413 47.57C29.834 47.532 33.38 45.9 37.159 43.076C43.787 38.288 49.449 31.658 52.334 25.336C56.761 15.563 54.058 4.722 46.306 1.174Z"
              fill="white"/>
        <path d="M27.327 13.745C23.573 5.618 15.552 1.345 9.425 4.206C3.287 7.066 1.367 15.968 5.121 24.096C10.661 36.09 25.175 45.482 27.914 44.205C30.641 42.928 32.879 25.74 27.327 13.745Z"
              fill="#E2241D"/>
        <path d="M49.387 23.96C53.093 15.808 51.111 6.92 44.961 4.096C38.81 1.272 30.813 5.594 27.108 13.746C21.629 25.777 23.977 42.953 26.716 44.206C29.456 45.457 43.921 35.992 49.387 23.96Z"
              fill="#62A830"/>
        <path d="M70.86 16.876C70.86 15.292 69.723 14.347 67.754 14.347C67.008 14.347 66.226 14.372 65.467 14.397V19.369C66.323 19.393 67.13 19.418 67.754 19.418C69.723 19.43 70.86 18.46 70.86 16.876ZM75.213 17.159C75.213 20.645 72.438 22.659 67.718 22.659C66.262 22.659 63.278 22.549 61.261 22.401V3.64101H73.294V6.87101H65.468V11.167C66.213 11.143 66.972 11.118 67.73 11.118C72.438 11.118 75.213 13.328 75.213 17.158V17.159ZM97.212 19.16H92.92C93.262 18.522 93.568 17.859 93.837 17.196C94.179 16.361 94.485 15.403 94.705 14.421C94.865 13.599 94.975 12.764 95.035 11.941H97.212V19.161V19.16ZM103.118 19.16H101.223V8.95801H91.66C91.721 10.038 91.673 11.107 91.563 12.076C91.269 14.556 90.584 17.086 89.117 19.148C88.322 19.148 87.637 19.172 87.637 19.172V25.25C87.637 25.25 89.728 25.385 91.269 25.446L91.465 22.131H99.291L99.486 25.446C101.039 25.385 103.118 25.25 103.118 25.25V19.16ZM110.308 19.897H109.061V16.067C109.452 16.042 109.844 16.042 110.223 16.042C111.629 16.042 112.448 16.766 112.448 17.969C112.461 19.16 111.654 19.897 110.308 19.897ZM110.223 13.255C109.832 13.255 109.44 13.255 109.061 13.279V8.95901C107.545 8.95901 105.038 9.15501 105.038 9.15501V22.39C106.542 22.55 108.511 22.648 110.296 22.648C114.16 22.648 116.447 20.905 116.447 17.958C116.447 15.024 114.173 13.256 110.223 13.256V13.255ZM84.678 8.90801L82.942 15.084L81.658 19.196C81.658 19.196 80.814 15.71 80.313 13.88C79.897 12.358 79.457 10.529 78.967 9.03101C77.794 8.81001 76.412 8.92101 74.883 9.37501L78.833 22.032L80.3 22.253C80.154 22.793 79.885 23.641 79.567 24.156C79.224 24.672 78.772 25.126 78.271 25.494C77.855 25.777 77.427 25.961 77.035 26.022L78.675 28.601C80.545 28.343 82.44 26.464 83.395 23.751L88.48 9.51001L84.677 8.90801H84.678ZM65.638 30.651C68.573 30.651 70.31 31.928 70.31 34.187C70.31 35.537 69.405 36.63 67.84 37.047C69.894 37.355 71.08 38.582 71.08 40.35C71.08 42.855 68.903 44.34 65.223 44.34C63.462 44.34 61.64 43.825 59.989 42.413L61.395 40.093C62.435 41.001 63.731 41.32 64.844 41.32C66.214 41.32 67.02 40.804 67.02 39.945C67.02 39.061 66.323 38.57 65.15 38.57H63.34V36.041H64.685C65.651 36.041 66.238 35.624 66.238 34.875C66.238 34.125 65.638 33.672 64.575 33.672C63.853 33.672 62.679 33.856 61.75 34.457L60.71 31.99C62.325 31.032 64.11 30.651 65.638 30.651ZM98.716 37.49C98.716 35.193 97.628 33.818 95.806 33.818C93.996 33.818 92.896 35.194 92.896 37.489C92.896 39.785 93.984 41.136 95.806 41.136C97.628 41.136 98.716 39.786 98.716 37.489V37.49ZM88.811 37.49C88.811 33.192 91.379 30.639 95.781 30.639C100.196 30.639 102.788 33.192 102.788 37.489C102.788 41.786 100.196 44.339 95.781 44.339C91.379 44.339 88.811 41.786 88.811 37.489V37.49ZM129.152 37.49C129.152 35.193 128.064 33.818 126.242 33.818C124.42 33.818 123.332 35.194 123.332 37.489C123.332 39.785 124.42 41.136 126.242 41.136C128.064 41.136 129.152 39.786 129.152 37.489V37.49ZM119.247 37.49C119.247 33.192 121.815 30.639 126.23 30.639C130.632 30.639 133.236 33.192 133.236 37.489C133.236 41.786 130.644 44.339 126.23 44.339C121.815 44.339 119.247 41.786 119.247 37.489V37.49ZM142.823 39.86C142.823 38.926 142.102 38.35 140.952 38.35H139.033V41.394C139.632 41.418 140.255 41.418 140.952 41.418C142.102 41.431 142.823 40.829 142.823 39.859V39.86ZM139.033 33.561V36.397H140.622C141.735 36.397 142.383 35.82 142.383 34.961C142.383 34.126 141.735 33.549 140.622 33.549H139.033V33.561ZM146.797 40.227C146.797 42.806 144.621 44.34 140.916 44.34C138.397 44.34 136.477 44.242 135.058 44.082V30.91C136.403 30.75 138.25 30.652 140.586 30.652C144.217 30.652 146.321 32.113 146.321 34.606C146.321 35.809 145.672 36.717 144.45 37.319C145.966 37.859 146.797 38.878 146.797 40.229V40.227ZM82.012 40.854H77.72C78.063 40.215 78.368 39.552 78.637 38.889C79.0008 37.9893 79.2911 37.0616 79.505 36.115C79.665 35.292 79.762 34.457 79.835 33.635H82.012V40.854ZM87.918 40.854H86.023V30.65H76.461C76.521 31.73 76.485 32.799 76.363 33.769C76.069 36.249 75.385 38.778 73.917 40.84C73.122 40.84 72.474 40.853 72.437 40.877V46.954C72.437 46.954 74.528 47.089 76.069 47.151L76.265 43.836H84.091L84.287 47.151C85.84 47.089 87.918 46.954 87.918 46.954V40.853V40.854ZM110.198 41.406C109.758 41.406 109.232 41.406 108.645 41.381V35.574C108.645 35.574 108.804 35.341 109.122 35.059C109.685 34.568 110.492 34.297 111.054 34.211C112.669 34.003 113.366 35.157 113.488 35.451C113.659 35.918 113.745 36.483 113.745 37.133C113.757 39.847 112.412 41.406 110.198 41.406ZM112.791 30.7C111.274 30.7 109.746 31.179 108.645 32.615V30.97C107.129 30.97 104.622 31.167 104.622 31.167V49.79C104.622 49.79 106.97 49.937 108.645 49.999V44.351C109.391 44.376 110.101 44.401 110.59 44.401C115.126 44.401 117.829 41.724 117.829 37.132C117.829 33.093 115.823 30.699 112.791 30.699V30.7ZM151.652 40.08C151.028 40.0813 150.43 40.3304 149.99 40.7724C149.55 41.2144 149.303 41.8131 149.304 42.437C149.303 42.746 149.364 43.0521 149.481 43.3378C149.599 43.6236 149.772 43.8833 149.99 44.1023C150.208 44.3213 150.467 44.4951 150.752 44.614C151.037 44.7328 151.343 44.7943 151.652 44.795C151.961 44.7943 152.267 44.7328 152.552 44.614C152.837 44.4951 153.096 44.3213 153.314 44.1023C153.532 43.8833 153.705 43.6236 153.823 43.3378C153.94 43.0521 154.001 42.746 154 42.437C154.001 41.8131 153.754 41.2144 153.314 40.7724C152.874 40.3304 152.276 40.0813 151.652 40.08ZM149.806 38.276H153.547L153.67 26.453C152.498 26.3673 151.323 26.3183 150.148 26.306C149.989 26.306 149.83 26.318 149.671 26.33L149.806 38.276Z"
              fill="#008738"/>
    </g>
    <defs>
        <clipPath id="clip0">
            <rect width="154" height="50" fill="white"/>
        </clipPath>
    </defs>
</svg>
