<svg width="143" height="142" viewBox="0 0 143 142" fill="none" xmlns="http://www.w3.org/2000/svg">
<path d="M129.095 71.2814C129.095 67.9049 128.907 62.8401 127.028 55.8996C126.84 55.3368 126.652 54.7741 126.464 54.0238C126.276 53.461 126.088 52.7107 125.9 52.1479C120.075 33.9524 102.223 16.8824 77.795 13.8811C77.2312 13.8811 76.6675 13.6935 75.9159 13.6935C75.3521 13.6935 74.6005 13.5059 74.0368 13.5059C73.473 13.5059 72.7214 13.5059 72.1576 13.5059C66.8961 13.3183 60.3193 14.2563 55.0578 15.7569C53.7424 16.1321 52.6149 16.5073 51.2996 16.8824C45.0985 19.1334 39.2733 22.3223 33.8239 26.8243C29.5019 30.5759 26.8712 33.2021 23.3009 38.2668C23.113 38.642 22.925 38.8296 22.7371 39.2047C8.08011 62.465 10.8988 89.852 28.1865 109.736C28.3745 109.923 28.5624 110.299 28.9382 110.486L29.6898 111.236L30.4415 111.987C30.6294 112.174 31.0052 112.55 31.1931 112.737C31.7568 113.3 32.1327 113.675 32.6964 114.238C65.7687 142.938 115.377 127.744 127.215 86.6631C128.531 81.9736 128.907 78.0343 129.095 75.4082C129.095 73.9075 128.907 74.6578 129.095 71.2814H130.598C129.282 123.804 70.0906 148.565 31.5689 115.176C31.0052 114.801 30.6294 114.238 30.0657 113.675C29.8777 113.487 29.5019 113.112 29.314 112.925L28.5624 112.174L27.8107 111.424C27.6228 111.236 27.247 110.861 27.0591 110.674C20.858 103.546 15.2207 94.7292 12.9658 81.9736C9.39548 61.3395 15.4086 41.0806 33.2601 25.6988C38.3337 21.572 43.7831 18.1955 49.2325 16.1321C49.7963 15.9445 50.5479 15.5693 51.1116 15.3818C52.427 15.0066 53.7424 14.4438 54.8699 14.0687C60.1314 12.568 65.2049 11.8177 70.4664 11.8177C70.8423 11.8177 71.0302 11.8177 71.406 11.8177C71.7818 11.8177 71.9697 11.8177 72.3456 11.8177C76.2917 12.0053 77.9829 12.1929 79.862 12.3804H80.2378H80.6136C80.9894 12.3804 81.1774 12.568 81.5532 12.568C82.1169 12.7556 82.6806 12.7556 83.4323 12.9432C91.1366 14.6314 97.1498 17.07 104.102 21.572C115.565 29.2629 123.833 41.0806 127.028 51.21C127.215 51.9604 127.403 52.5231 127.779 53.0858C127.967 53.6486 128.155 54.3989 128.343 54.9617C130.034 61.1519 130.41 65.6539 130.41 70.7186H129.095V71.2814Z" fill="#008738"/>
<path d="M129.47 78.9723C136.987 77.284 140.745 84.7873 139.054 92.8534C132.665 92.8534 130.222 85.3501 129.47 78.9723Z" fill="#008738"/>
<path d="M127.028 89.8521C133.229 89.6645 137.551 95.1044 133.792 105.421C127.403 104.108 126.464 96.0423 127.028 89.8521Z" fill="#008738"/>
<path d="M122.33 100.169C128.343 101.107 131.725 107.297 125.9 116.676C120.075 114.238 120.639 106.172 122.33 100.169Z" fill="#008738"/>
<path d="M115.941 109.361C120.827 111.236 122.706 116.114 119.699 121.741C119.511 122.116 119.323 122.491 119.135 122.867C118.947 123.054 118.947 123.242 118.76 123.429C118.572 123.617 118.572 123.804 118.384 123.992C117.82 124.742 117.256 125.493 116.505 126.243C111.055 122.679 113.122 114.988 115.941 109.361Z" fill="#008738"/>
<path d="M107.861 117.052C112.183 119.678 113.31 124.93 109.176 129.995C108.988 130.37 108.612 130.558 108.424 130.933C108.049 131.308 107.861 131.495 107.485 131.871C106.733 132.433 105.982 133.184 105.23 133.746C105.23 133.746 104.854 133.371 104.29 132.621C101.284 127.369 104.29 121.741 107.861 117.052Z" fill="#008738"/>
<path d="M98.4652 123.242C100.156 124.742 101.66 127.369 101.096 130.37C100.908 131.308 100.532 132.246 99.9684 133.184C99.5926 133.746 99.2168 134.122 98.841 134.684C98.6531 134.872 98.4652 135.247 98.0893 135.435C97.9014 135.622 97.5256 135.997 97.1498 136.185C96.5861 136.748 95.8344 137.123 95.0828 137.686C94.3311 138.248 93.3916 138.624 92.452 139.186C92.452 139.186 92.0762 138.624 91.8883 137.873C91.5125 136.935 91.3246 135.81 91.5125 134.309C91.8883 129.807 95.2707 126.055 98.4652 123.242Z" fill="#008738"/>
<path d="M88.1301 127.369C88.6938 128.119 89.8213 130.182 89.8213 132.433C89.8213 133.184 89.6334 133.934 89.2576 134.872C89.0696 135.247 88.8817 135.622 88.6938 136.185C88.5059 136.373 88.5059 136.56 88.318 136.748C88.1301 136.935 87.9422 137.123 87.7543 137.31C87.3784 137.686 86.8147 138.061 86.4389 138.624C86.251 138.811 85.8752 138.999 85.4993 139.186C85.1235 139.374 84.9356 139.561 84.5598 139.749C83.8081 140.124 83.0565 140.499 82.3049 140.875C81.3653 141.25 80.4257 141.437 79.4862 141.812C79.4862 141.812 79.2983 141.25 79.1104 140.312C78.9225 139.374 78.9225 138.061 79.2983 136.748C80.2378 132.621 84.3719 129.62 88.1301 127.369Z" fill="#008738"/>
<path d="M77.0433 129.62C78.7345 132.996 77.9829 136.748 74.7884 139.374C73.8488 140.124 72.7214 140.687 71.2181 141.062C70.4664 141.25 69.7148 141.437 68.7752 141.625C68.3994 141.625 67.8357 141.812 67.272 141.812C66.7082 141.812 66.3324 141.812 65.7687 142C65.7687 142 65.5808 141.437 65.7687 140.499C65.7687 134.872 71.5939 131.495 77.0433 129.62Z" fill="#008738"/>
<path d="M65.7687 129.62C66.3324 131.683 66.1445 134.872 64.0775 136.935C63.5138 137.498 62.7621 138.248 61.6347 138.623C59.5677 139.561 56.5611 140.124 52.2391 139.561C52.2391 139.561 52.2391 138.999 52.427 138.061C53.9303 132.433 60.1314 130.745 65.7687 129.62Z" fill="#008738"/>
<path d="M54.8699 127.556C55.0578 131.12 53.1787 134.684 49.0447 135.622C48.481 135.81 47.9172 135.81 47.1656 135.997C46.4139 135.997 45.8502 135.997 44.9107 135.997C44.5348 135.997 44.159 135.997 43.5953 135.81C43.2195 135.81 42.6557 135.622 42.2799 135.622C41.9041 135.435 41.3403 135.435 40.9645 135.247C40.7766 135.247 40.4008 135.059 40.2129 135.059C40.025 135.059 39.6492 134.872 39.4612 134.872C40.5887 128.682 48.481 127.369 54.8699 127.556Z" fill="#008738"/>
<path d="M44.3469 123.429C43.7832 127.369 40.7766 130.745 35.1393 130.37C32.5085 129.995 30.0657 129.057 27.8108 127.744C30.0657 121.929 38.3338 122.116 44.3469 123.429Z" fill="#008738"/>
<path d="M34.9513 117.427C32.6964 124.555 24.2404 124.18 18.0394 118.552C19.7306 115.926 24.2404 113.675 30.8173 115.926C32.1327 116.301 33.4481 116.864 34.9513 117.427Z" fill="#008738"/>
<path d="M26.6833 109.736C26.6833 109.736 26.3075 110.299 25.7437 111.049C20.8581 116.489 14.0933 113.112 9.95924 107.672C14.2812 102.983 21.6097 106.172 26.6833 109.736Z" fill="#008738"/>
<path d="M20.2943 100.544C16.3482 105.421 9.20756 104.859 4.13397 95.2919C4.13397 95.2919 4.6977 94.9167 5.44935 94.5416C6.3889 94.1664 7.51636 93.9788 9.01965 93.9788C13.5295 94.1664 17.2877 97.5429 20.2943 100.544Z" fill="#008738"/>
<path d="M15.5966 90.4148C13.1538 92.4782 9.77136 93.0409 6.9527 91.3527C3.75822 89.4769 2.06702 85.7252 0.93956 82.1612C1.6912 81.786 3.57031 81.2232 6.01315 81.786C6.76479 81.9736 7.51643 82.1612 8.26808 82.5363C8.6439 82.7239 9.01972 82.9115 9.39554 83.2867C9.58345 83.4742 9.77136 83.4742 9.95927 83.6618C12.0263 85.5376 13.9054 87.9762 15.5966 90.4148Z" fill="#008738"/>
<path d="M12.9658 79.535C12.9658 79.535 12.4021 79.9102 11.4625 80.0978C10.523 80.2854 9.20759 80.6605 7.70431 80.2854C2.63072 79.3474 0.563703 73.72 0.187881 68.4676C3.19445 67.7173 7.5164 69.0304 11.2746 75.4082C11.6504 76.3461 12.4021 78.2219 12.9658 79.535Z" fill="#008738"/>
<path d="M12.402 68.2801C6.3889 70.1559 0.75158 65.8415 1.87904 55.1493C7.89219 54.5865 11.2746 61.9023 12.402 68.2801Z" fill="#008738"/>
<path d="M14.0933 57.2127C10.7109 57.5878 6.95269 55.8996 5.63732 51.7728C4.88568 49.5218 4.88568 46.5205 6.20105 42.2061C6.20105 42.2061 6.76478 42.2061 7.70434 42.5812C13.1537 44.8322 13.9054 51.3976 14.0933 57.2127Z" fill="#008738"/>
<path d="M17.6636 46.5205C12.2142 46.1453 7.32848 40.5178 12.7779 30.3884C12.7779 30.3884 13.3416 30.5759 14.0933 31.1387C18.9789 34.3276 18.791 40.893 17.6636 46.5205Z" fill="#008738"/>
<path d="M23.4888 36.9538C21.4218 36.391 18.791 34.5152 18.0394 31.7015C16.9119 27.9498 19.1668 23.2603 21.7976 20.0714C26.8712 22.8851 25.9316 30.7636 23.4888 36.9538Z" fill="#008738"/>
<path d="M30.8173 28.3249C24.0525 24.9484 25.5558 16.8824 32.3206 11.4425C34.7634 13.5059 36.0788 18.3831 33.0722 24.3857C32.6964 24.9485 32.5085 25.6988 32.1327 26.2615C31.7569 26.8243 31.0052 28.1374 30.8173 28.3249Z" fill="#008738"/>
<path d="M39.6491 21.572C34.5755 17.6328 35.3272 10.1295 44.3469 5.25232C48.293 10.1295 44.159 16.8824 39.6491 21.572Z" fill="#008738"/>
<path d="M49.7963 16.5073C49.7963 16.5073 49.4205 15.9445 48.8568 15.1942C45.0986 8.62881 51.2996 3.3765 57.5007 1.50067C58.6281 3.75166 58.6281 7.6909 55.8095 11.255C55.2457 12.1929 54.3062 12.9432 53.3666 13.8811C52.8029 14.2563 52.4271 14.819 51.6754 15.1942C51.2996 15.3818 51.1117 15.5694 50.7359 15.9445C50.36 15.9445 49.9842 16.1321 49.7963 16.5073Z" fill="#008738"/>
<path d="M60.5072 13.3184C60.5072 13.3184 60.1313 12.7556 59.7555 11.8177C57.5006 5.06473 63.3258 1.1255 70.8423 0C71.2181 1.31308 71.406 4.87715 68.3994 8.25363C68.2115 8.44122 68.0236 8.6288 67.8357 8.81638C67.6478 9.00396 67.4599 9.19155 67.2719 9.37913C65.7687 10.6922 63.5137 12.0053 60.5072 13.3184Z" fill="#008738"/>
<path d="M71.7819 12.3804C71.7819 12.3804 71.594 11.8177 71.406 10.6922C70.4665 3.56404 77.0434 0.750302 84.5598 1.12547C84.7477 4.12679 82.8686 9.94185 71.7819 12.3804Z" fill="#008738"/>
<path d="M82.8686 13.506C82.8686 13.506 82.6807 12.7556 82.8686 11.8177C83.2444 4.68958 90.5729 3.00133 97.5256 5.06474C97.3377 7.87848 94.8949 11.255 89.2575 12.7556C88.6938 12.9432 88.1301 13.1308 87.3784 13.1308C87.0026 13.1308 86.6268 13.1308 86.4389 13.3184C85.6872 13.3184 85.1235 13.506 82.8686 13.506Z" fill="#008738"/>
<path d="M93.7674 16.6949C93.7674 16.6949 93.7674 15.9446 93.9553 15.0066C95.8344 7.8785 103.163 7.8785 109.74 11.0674C108.988 13.506 106.169 16.3197 101.66 16.8825C99.5926 17.2576 96.9618 17.2576 93.7674 16.6949Z" fill="#008738"/>
<path d="M103.727 22.1347C103.727 22.1347 103.915 21.3844 104.29 20.6341C107.485 14.0687 114.625 15.3818 120.451 19.6962C120.075 20.4465 118.196 23.0726 114.438 23.6354C113.498 23.823 112.558 23.823 111.619 23.823C109.364 23.6354 106.733 23.2602 103.727 22.1347Z" fill="#008738"/>
<path d="M112.371 29.0753C112.371 29.0753 112.558 28.5126 113.31 27.5747C113.874 26.8243 114.813 25.6988 116.129 25.1361C116.692 24.7609 117.632 24.5734 118.384 24.3858C122.518 23.823 126.464 26.8243 129.283 29.8257C125.524 34.8904 117.82 32.2642 112.371 29.0753Z" fill="#008738"/>
<path d="M119.699 37.7041C121.014 35.8282 123.645 34.14 126.464 34.3276C130.598 34.5152 133.98 38.2668 136.235 41.6433C136.235 41.6433 135.859 42.0185 134.92 42.3936C129.658 45.0198 124.021 41.4557 119.699 37.7041Z" fill="#008738"/>
<path d="M125.148 47.4584C126.652 45.9577 129.47 44.6446 132.477 45.395C133.417 45.5825 134.168 45.9577 135.108 46.708C136.987 48.0211 138.866 50.4597 140.557 54.5865C138.49 55.8996 134.544 55.8996 130.786 53.2734C130.41 52.8983 129.846 52.7107 129.47 52.1479C129.095 51.7728 128.531 51.3976 128.155 50.8349C127.967 50.6473 127.779 50.2721 127.403 50.0845C126.464 49.1466 126.088 48.3963 125.148 47.4584Z" fill="#008738"/>
<path d="M128.719 58.1506C132.853 55.5244 137.926 56.4624 140.933 62.6526C141.873 64.716 142.436 67.3422 142.624 67.9049C136.611 70.1559 131.537 63.7781 128.719 58.1506Z" fill="#008738"/>
<path d="M129.283 69.5932C136.047 65.2788 142.06 71.2814 143 79.3475C137.175 81.5985 132.101 75.2207 129.283 69.5932Z" fill="#008738"/>
<path d="M114.813 79.7226C118.572 74.4703 124.209 70.7187 128.719 75.4082C128.155 76.5337 127.215 77.6592 126.276 78.5972C125.712 79.1599 125.148 79.7226 124.585 80.0978C121.39 82.3488 118.196 81.9736 114.813 79.7226Z" fill="#008738"/>
<path d="M112.371 87.9763C114.062 86.4756 117.256 84.2247 119.699 83.6619C120.451 83.4743 121.202 83.2867 122.142 83.2867C122.894 83.2867 123.833 83.4743 124.585 84.0371C125.336 84.5998 126.276 85.3501 127.028 86.4756C125.712 88.1639 123.457 89.6645 121.954 90.2273C120.451 90.79 118.76 91.1652 117.256 90.79C116.505 90.6025 115.565 90.2273 114.813 89.8521C114.438 89.6646 114.062 89.2894 113.686 88.9142C113.31 88.7266 112.746 88.3515 112.371 87.9763Z" fill="#008738"/>
<path d="M108.424 95.6671C108.424 95.6671 108.988 95.292 110.116 94.7292C110.679 94.5416 111.243 94.1665 111.807 93.9789C112.183 93.7913 112.558 93.7913 112.934 93.6037C113.31 93.4161 113.686 93.4161 114.062 93.2286C114.813 93.041 115.565 92.8534 116.505 92.8534C117.256 92.8534 118.196 92.8534 118.947 93.041C119.699 93.2286 120.451 93.6037 121.202 94.3541C121.954 94.9168 122.518 95.8547 123.081 97.1678C120.639 99.2312 116.88 100.732 113.874 99.9815C113.498 99.9815 113.122 99.7939 112.746 99.6064C111.995 99.2312 111.243 98.856 110.491 98.1057C109.552 97.3554 108.988 96.605 108.424 95.6671Z" fill="#008738"/>
<path d="M102.975 102.42C102.975 102.42 103.727 102.233 104.854 101.857C105.418 101.67 105.982 101.482 106.733 101.482C107.109 101.482 107.485 101.295 107.861 101.295C108.237 101.295 108.612 101.107 108.988 101.107C109.74 101.107 110.679 101.107 111.431 101.107C112.183 101.107 112.934 101.295 113.686 101.67C115.565 102.608 116.693 104.296 117.068 106.359C112.934 108.61 107.297 108.798 104.478 104.859C104.29 104.484 103.915 104.108 103.727 103.546C103.351 103.546 103.163 102.983 102.975 102.42Z" fill="#008738"/>
<path d="M96.2102 108.048C100.908 107.297 109.176 107.485 109.176 114.801C105.606 115.926 97.5256 116.301 96.2102 108.048Z" fill="#008738"/>
<path d="M88.6938 112.174C94.519 112.362 101.472 114.613 100.156 121.366C93.9552 122.116 88.3179 119.115 88.6938 112.174Z" fill="#008738"/>
<path d="M80.2378 114.801C86.251 116.114 92.2641 119.865 89.6334 126.055C89.2575 126.055 88.318 125.868 87.5663 125.68C85.3114 125.118 83.2444 124.18 81.7411 122.491C81.1774 121.929 80.8016 121.178 80.4257 120.428C79.862 118.927 79.6741 117.052 80.2378 114.801Z" fill="#008738"/>
<path d="M71.5939 115.738C72.7214 116.301 74.7884 117.427 76.6675 119.115C80.0499 121.929 80.9895 125.118 78.5466 128.682C76.8554 128.306 75.1642 127.181 74.0368 126.243C73.6609 126.056 73.473 125.68 73.0972 125.493C70.2786 122.679 69.9027 119.303 71.5939 115.738Z" fill="#008738"/>
<path d="M62.95 114.988C64.4533 116.114 68.9632 119.865 69.5269 123.617C69.9027 125.68 68.9632 127.556 67.4599 129.057C63.1379 126.806 58.2523 121.366 62.95 114.988Z" fill="#008738"/>
<path d="M54.4941 112.55C54.8699 112.925 55.2457 113.487 55.6215 114.05C59.3797 118.74 61.0709 123.805 55.9973 127.181C53.1787 124.93 50.7358 120.991 51.4875 117.427C51.8633 115.738 52.8029 114.05 54.4941 112.55Z" fill="#008738"/>
<path d="M46.7897 108.61C47.3535 109.548 50.548 115.176 49.6084 118.927C49.4205 119.678 49.0447 120.428 48.293 121.178C47.5414 121.929 46.6018 122.679 45.4744 123.054C41.7162 118.74 40.5887 112.362 46.7897 108.61Z" fill="#008738"/>
<path d="M40.025 103.17C42.2799 109.173 42.4678 115.926 35.8909 117.239C35.1393 115.926 34.7635 114.613 34.5755 113.487C34.3876 112.737 34.3876 111.987 34.3876 111.236C34.3876 110.486 34.3876 109.548 34.5755 108.798C34.7635 108.423 34.7635 108.048 34.9514 107.672C35.1393 107.297 35.3272 106.922 35.5151 106.547C36.4547 104.859 38.1458 103.733 40.025 103.17Z" fill="#008738"/>
<path d="M34.3876 96.4175C34.5755 97.3554 34.7634 100.357 34.5755 102.42C34.5755 103.17 34.3876 104.108 34.0118 104.859C33.8238 105.609 33.448 106.359 32.8843 107.11C32.3206 107.86 31.7568 108.423 30.8173 108.798C30.4415 108.985 29.8777 109.173 29.314 109.361C28.7503 109.548 28.1865 109.548 27.4349 109.548C26.3074 106.172 26.4953 101.482 29.1261 98.856C30.6294 97.3554 32.3206 96.7926 34.3876 96.4175Z" fill="#008738"/>
<path d="M30.0657 88.7266C30.0657 89.6645 29.6899 92.6658 28.9382 94.7292C28.7503 95.4795 28.3745 96.2299 27.9987 96.9802C26.4954 99.7939 24.0525 100.732 20.8581 100.169C20.6701 98.2933 20.8581 95.8547 21.6097 93.9789C21.9855 93.2285 22.3613 92.4782 22.7372 91.9155C23.3009 91.3527 23.8646 90.6024 24.4284 90.2272C26.1196 89.1017 27.8108 88.7266 30.0657 88.7266Z" fill="#008738"/>
<path d="M27.4349 80.4729C25.9316 86.8507 22.3613 92.4782 16.1603 89.852C16.5361 85.5376 19.5427 78.5971 27.4349 80.4729Z" fill="#008738"/>
<path d="M26.4954 71.8442C23.8646 77.6592 19.1669 82.5364 13.7175 78.9723C14.657 74.8455 18.979 68.2801 26.4954 71.8442Z" fill="#008738"/>
<path d="M27.247 63.0278C23.4888 68.2801 18.0394 72.2193 13.3416 67.5297C16.1603 61.9023 21.7976 59.0885 27.247 63.0278Z" fill="#008738"/>
<path d="M29.502 54.7741C24.8042 59.0885 18.6032 61.7147 15.0329 56.2748C18.6032 51.7728 24.8042 49.5218 29.502 54.7741Z" fill="#008738"/>
<path d="M33.636 46.8956C27.9987 50.2721 21.4218 51.7728 18.9789 45.7701C19.7306 45.2074 21.046 44.2695 22.3613 43.7067C23.113 43.3316 23.8646 43.144 24.6163 42.9564C26.1195 42.5812 27.8107 42.5812 29.5019 43.144C31.0052 43.7067 32.3206 45.0198 33.636 46.8956Z" fill="#008738"/>
<path d="M39.0854 40.1427C36.2667 41.2682 31.1931 42.2061 28.3745 40.8931C26.4954 39.9551 25.3679 38.2669 24.9921 36.2035C29.6899 33.3897 36.4546 33.2022 39.0854 40.1427Z" fill="#008738"/>
<path d="M45.6623 34.3277C39.2733 35.4532 32.5085 34.1401 32.5085 27.5747C32.5085 27.5747 33.2602 27.3871 34.3877 27.1995C34.9514 27.012 35.703 27.012 36.4547 27.012C41.5283 27.012 44.9106 29.263 45.6623 34.3277Z" fill="#008738"/>
<path d="M53.3666 30.0132C46.7897 29.8256 40.5887 27.3871 41.904 21.0093C47.1655 20.4465 53.5545 22.8851 53.3666 30.0132Z" fill="#008738"/>
<path d="M61.6346 27.3871C57.6885 26.4492 51.8633 24.0106 51.4875 19.5086C51.4875 18.9459 51.4875 18.5707 51.4875 18.0079C51.6754 17.4452 51.6754 16.8824 52.0512 16.3197C52.0512 16.3197 52.8028 16.3197 54.1182 16.6949C54.6819 16.8824 55.4336 17.07 55.9973 17.2576C60.6951 18.9459 62.95 22.3223 61.6346 27.3871Z" fill="#008738"/>
<path d="M70.4664 26.4492C64.4533 23.823 59.5676 19.1334 63.3258 13.6935C67.272 14.6315 73.8488 18.7583 70.4664 26.4492Z" fill="#008738"/>
<path d="M79.1103 27.0119C75.54 24.5733 71.406 20.0714 72.7214 15.9445C72.9093 15.5694 73.0972 15.0066 73.473 14.6315C73.8488 14.0687 74.2246 13.6935 74.6005 13.1308C74.6005 13.1308 75.3521 13.506 76.2917 14.2563C80.8015 17.4452 82.8685 22.1348 79.1103 27.0119Z" fill="#008738"/>
<path d="M87.5664 29.4505C87.3785 29.263 87.0026 28.7002 86.4389 27.9499C82.6807 23.2603 80.8016 18.3832 85.8752 14.8191C89.2576 17.4452 93.7674 23.8231 87.5664 29.4505Z" fill="#008738"/>
<path d="M95.4586 33.3897C95.4586 33.3897 95.2707 33.2021 95.2707 33.0145C95.0828 32.6393 94.8949 32.2642 94.7069 31.889C91.8883 26.4491 91.1366 21.3844 96.774 18.9458C99.7805 22.5099 102.223 29.2628 95.4586 33.3897Z" fill="#008738"/>
<path d="M102.411 38.8296C100.532 33.9525 99.4047 26.2616 106.357 24.7609C106.357 24.7609 106.733 25.5113 107.109 26.6368C109.176 31.8891 108.049 36.7662 102.411 38.8296Z" fill="#008738"/>
<path d="M108.049 45.5826C106.921 39.2048 108.049 32.4518 114.625 32.4518C116.505 37.8917 115.377 44.2695 108.049 45.5826Z" fill="#008738"/>
<path d="M112.371 53.0859C112.558 46.5205 115.001 40.1427 121.39 41.4558C122.142 46.5205 120.075 53.4611 112.371 53.0859Z" fill="#008738"/>
<path d="M115.189 61.5271C116.692 55.1493 120.263 49.5218 126.276 51.9604C126.276 51.9604 126.276 52.7107 125.9 54.0238C125.712 54.5865 125.524 55.3369 125.336 55.8996C125.148 56.2748 125.148 56.6499 124.961 57.0251C124.961 57.2127 124.773 57.4003 124.773 57.5879C124.585 57.7754 124.585 57.963 124.397 58.1506C122.894 60.4016 121.014 61.9022 118.196 61.9022C117.256 61.9022 116.317 61.7147 115.189 61.5271Z" fill="#008738"/>
<path d="M116.317 70.1559C116.505 69.5931 117.068 68.8428 117.256 68.4676C120.075 63.2153 124.209 59.6513 129.095 62.8402C127.779 67.5297 123.457 73.5324 116.317 70.1559Z" fill="#008738"/>
<path d="M68.1878 92.647H78.4778V47.147H69.6578L57.6178 52.747L59.3678 60.727L68.0478 56.597H68.1878V92.647Z" fill="#008738"/>
</svg>
