<svg width="30" height="30" viewBox="0 0 30 30" fill="none" xmlns="http://www.w3.org/2000/svg">
<g clip-path="url(#clip0)">
<path d="M23.1271 3.12867C19.3314 3.12351 16.2501 6.19638 16.2449 9.99213C16.2398 13.7879 19.3127 16.8692 23.1084 16.8743C25.3495 16.8774 27.4515 15.7875 28.7404 13.954C28.6246 20.4248 23.3508 25.6124 16.8791 25.6216C16.534 25.6216 16.2543 25.9013 16.2543 26.2464C16.2543 26.5915 16.534 26.8712 16.8791 26.8712C24.1221 26.863 29.9917 20.9934 30 13.7503V10.0015C29.9959 6.20745 26.9212 3.13283 23.1271 3.12867Z" fill="#008738"/>
<path d="M6.88221 3.12867C3.08646 3.12351 0.00516111 6.19638 6.47558e-06 9.99219C-0.00514816 13.788 3.06772 16.8692 6.86353 16.8744C9.10468 16.8774 11.2066 15.7875 12.4955 13.9541C12.3798 20.4248 7.10597 25.6125 0.634203 25.6216C0.289135 25.6216 0.00937855 25.9014 0.00937855 26.2465C0.00937855 26.5915 0.289135 26.8713 0.634203 26.8713C7.87723 26.863 13.7468 20.9934 13.7551 13.7504V10.0016C13.7509 6.20745 10.6763 3.13283 6.88221 3.12867Z" fill="#008738"/>
</g>
<defs>
<clipPath id="clip0">
<rect width="30" height="30" fill="white"/>
</clipPath>
</defs>
</svg>
