<svg width="71" height="71" viewBox="0 0 71 71" fill="none" xmlns="http://www.w3.org/2000/svg">
<path d="M44.3236 47.9229C44.1267 47.2139 43.8449 46.5334 43.482 45.8926L44.1815 44.493L41.3941 41.7056L39.9945 42.4051C39.3521 42.0422 38.6732 41.7604 37.9642 41.5636L37.471 40.0807H33.5301L33.0358 41.5636C32.3268 41.7604 31.6463 42.0422 31.0055 42.4051L29.6059 41.7056L26.8185 44.493L27.518 45.8926C27.1551 46.5351 26.8733 47.2139 26.6764 47.9229L25.1936 48.4161V52.3571L26.6764 52.8514C26.8733 53.5604 27.1551 54.2392 27.518 54.8806L26.8185 56.2801L29.6059 59.0687L31.0055 58.3692C31.6479 58.7321 32.3268 59.0139 33.0358 59.2107L33.529 60.6936H37.4699L37.9642 59.2107C38.6732 59.0139 39.3537 58.7321 39.9945 58.3692L41.3941 59.0687L44.1815 56.2801L43.482 54.8806C43.8449 54.2381 44.1267 53.5604 44.3236 52.8514L45.8064 52.3582V48.4172L44.3236 47.9229ZM35.5 56.1129C32.3379 56.1129 29.7742 53.5492 29.7742 50.3871C29.7742 47.2251 32.3379 44.6613 35.5 44.6613C38.6621 44.6613 41.2258 47.2251 41.2258 50.3871C41.2258 53.5492 38.6621 56.1129 35.5 56.1129Z" fill="#FD9B0D"/>
<path d="M29.7742 71H11.4516V61.8387H29.7742V71Z" fill="#FD9B0D"/>
<path d="M59.5484 71H41.2258V61.8387H59.5484V71Z" fill="#FD9B0D"/>
<path d="M71 27.4565C71 24.9084 69.36 22.7042 66.9198 21.9711L59.5484 19.7607V18.0223C61.6827 16.5316 62.9839 14.0707 62.9839 11.4516V8.01613C62.9839 3.59596 59.3879 0 54.9677 0C50.5476 0 46.9516 3.59596 46.9516 8.01613V11.4516C46.9516 14.0718 48.2528 16.5316 50.3871 18.0223V19.7607L45.2339 21.3068L40.0806 19.7607V18.0223C42.215 16.5316 43.5161 14.0707 43.5161 11.4516V8.01613C43.5161 3.59596 39.9202 0 35.5 0C31.0798 0 27.4839 3.59596 27.4839 8.01613V11.4516C27.4839 14.0718 28.785 16.5316 30.9194 18.0223V19.7607L25.7661 21.3068L20.6129 19.7607V18.0223C22.7472 16.5316 24.0484 14.0707 24.0484 11.4516V8.01613C24.0484 3.59596 20.4524 0 16.0323 0C11.6121 0 8.01613 3.59596 8.01613 8.01613V11.4516C8.01613 14.0718 9.3173 16.5316 11.4516 18.0223V19.7607L4.0802 21.9722C1.64002 22.7042 0 24.9084 0 27.4565V37.7903H5.72581V51.5323H19.4677V61.8387H21.7581V51.5323H25.1935V49.2419H8.01613V37.7903H62.9839V49.2419H45.8064V51.5323H49.2419V61.8387H51.5323V51.5323H65.2742V37.7903H71V27.4565ZM54.9677 2.29032C57.7322 2.29032 60.0455 4.26136 60.5778 6.87097H57.5281C56.0307 6.87097 54.5305 6.51702 53.189 5.84603L52.4504 5.47754L51.8666 6.0613C51.3539 6.57573 50.6404 6.87097 49.9129 6.87097H49.3577C49.89 4.26136 52.2033 2.29032 54.9677 2.29032ZM49.2419 11.4516V9.16129H49.9129C50.986 9.16129 52.0064 8.82915 52.8597 8.21407C54.332 8.83586 55.9306 9.16129 57.5281 9.16129H60.6935V11.4516C60.6935 13.483 59.5965 15.382 57.8295 16.4058L57.2581 16.7368V20.0001L54.9677 21.5266L52.6774 20.0001V16.7368L52.106 16.4058C50.339 15.382 49.2419 13.483 49.2419 11.4516ZM35.5 2.29032C38.2645 2.29032 40.5777 4.26136 41.1101 6.87097H38.0604C36.563 6.87097 35.0627 6.51702 33.7213 5.84603L32.9827 5.47754L32.3989 6.0613C31.8861 6.57573 31.1727 6.87097 30.4452 6.87097H29.8899C30.4223 4.26136 32.7355 2.29032 35.5 2.29032ZM29.7742 11.4516V9.16129H30.4452C31.5182 9.16129 32.5387 8.82915 33.392 8.21407C34.8642 8.83586 36.4629 9.16129 38.0604 9.16129H41.2258V11.4516C41.2258 13.483 40.1287 15.382 38.3618 16.4058L37.7903 16.7368V20.0001L35.5 21.5266L33.2097 20.0001V16.7368L32.6382 16.4058C30.8713 15.382 29.7742 13.483 29.7742 11.4516ZM31.8778 21.8643L35.5 24.2799L39.1222 21.8643L46.7934 24.1653C48.2584 24.6048 49.2419 25.9277 49.2419 27.4565V35.5H21.7581V27.4565C21.7581 25.9277 22.7416 24.6048 24.2066 24.1653L31.8778 21.8643ZM16.0323 2.29032C18.7967 2.29032 21.11 4.26136 21.6423 6.87097H21.0871C20.3596 6.87097 19.6461 6.57573 19.1322 6.0613L18.5479 5.47754L17.8093 5.84603C16.4695 6.51702 14.9693 6.87097 13.4719 6.87097H10.4222C10.9545 4.26136 13.2678 2.29032 16.0323 2.29032ZM10.3065 11.4516V9.16129H13.4719C15.0694 9.16129 16.668 8.83586 18.1403 8.21407C18.9936 8.82915 20.0152 9.16129 21.0871 9.16129H21.7581V11.4516C21.7581 13.483 20.661 15.382 18.894 16.4058L18.3226 16.7368V20.0001L16.0323 21.5266L13.7419 20.0001V16.7368L13.1705 16.4058C11.4035 15.382 10.3065 13.483 10.3065 11.4516ZM2.29032 27.4565C2.29032 25.9277 3.27389 24.6048 4.73889 24.1653L12.41 21.8632L16.0323 24.2799L19.6545 21.8643L22.159 22.6158C20.5111 23.6408 19.4677 25.434 19.4677 27.4565V35.5H2.29032V27.4565ZM68.7097 35.5H51.5323V27.4565C51.5323 25.434 50.4889 23.6408 48.841 22.6158L51.3455 21.8643L54.9677 24.2799L58.59 21.8643L66.2611 24.1653C67.7261 24.6048 68.7097 25.9277 68.7097 27.4565V35.5Z" fill="#333333"/>
<path d="M35.5 43.5161C31.7106 43.5161 28.629 46.5976 28.629 50.3871C28.629 54.1765 31.7106 57.258 35.5 57.258C39.2894 57.258 42.371 54.1765 42.371 50.3871C42.371 46.5976 39.2894 43.5161 35.5 43.5161ZM35.5 54.9677C32.9737 54.9677 30.9194 52.9134 30.9194 50.3871C30.9194 47.8608 32.9737 45.8064 35.5 45.8064C38.0263 45.8064 40.0806 47.8608 40.0806 50.3871C40.0806 52.9134 38.0263 54.9677 35.5 54.9677Z" fill="#333333"/>
<path d="M10.3064 44.6613H12.5968V46.9516H10.3064V44.6613Z" fill="#333333"/>
<path d="M14.8871 44.6613H17.1774V46.9516H14.8871V44.6613Z" fill="#333333"/>
<path d="M19.4677 44.6613H21.7581V46.9516H19.4677V44.6613Z" fill="#333333"/>
<path d="M49.2419 44.6613H51.5323V46.9516H49.2419V44.6613Z" fill="#333333"/>
<path d="M53.8226 44.6613H56.1129V46.9516H53.8226V44.6613Z" fill="#333333"/>
<path d="M58.4032 44.6613H60.6936V46.9516H58.4032V44.6613Z" fill="#333333"/>
</svg>
