<svg width="71" height="71" viewBox="0 0 71 71" fill="none" xmlns="http://www.w3.org/2000/svg">
<path d="M41.0014 18.8428L35.5 33.2813H37.7187L42.1562 28.8438L41.0469 26.625L43.2656 24.4063L44.1298 20.6167L41.0014 18.8428Z" fill="#FD9B0D"/>
<path d="M29.9964 18.8372L35.5 33.2812H33.2813L28.8438 28.8437L29.9531 26.625L27.7344 24.4062L26.8702 20.6166L29.9964 18.8372Z" fill="#FD9B0D"/>
<path d="M63.2266 35.3203C63.1512 23.3679 55.6108 13.0041 44.3362 9.22556C43.949 4.686 40.1372 1.10938 35.5 1.10938C30.8628 1.10938 27.051 4.686 26.6638 9.22445C15.3892 13.003 7.84883 23.3679 7.77339 35.3203C3.85619 37.0343 1.10938 40.9426 1.10938 45.4844C1.10938 51.6015 6.08603 56.5781 12.2031 56.5781C13.7385 56.5781 15.2029 56.2631 16.5341 55.6962C18.916 57.936 21.6306 59.7154 24.627 60.9945C25.6499 66.0622 30.1362 69.8906 35.5 69.8906C40.8638 69.8906 45.3501 66.0622 46.373 60.9957C49.3705 59.7165 52.0852 57.9371 54.4659 55.6973C55.7971 56.2631 57.2615 56.5781 58.7969 56.5781C64.914 56.5781 69.8906 51.6015 69.8906 45.4844C69.8906 40.9426 67.1438 37.0343 63.2266 35.3203ZM35.5 3.32812C39.1709 3.32812 42.1562 6.31345 42.1562 9.98438C42.1562 13.6553 39.1709 16.6406 35.5 16.6406C31.8291 16.6406 28.8438 13.6553 28.8438 9.98438C28.8438 6.31345 31.8291 3.32812 35.5 3.32812ZM29.3885 20.3581L33.8903 32.1719H22.1875C22.1875 27.0344 25.1162 22.5769 29.3885 20.3581ZM48.8125 32.1719H37.1097L41.6115 20.3581C45.8826 22.5769 48.8125 27.0344 48.8125 32.1719ZM39.5636 19.4995L35.5 30.165L31.4364 19.4995C32.7177 19.0868 34.0822 18.8594 35.5 18.8594C36.9178 18.8594 38.2823 19.0868 39.5636 19.4995ZM3.32812 45.4844C3.32812 40.5909 7.30967 36.6094 12.2031 36.6094C17.0966 36.6094 21.0781 40.5909 21.0781 45.4844C21.0781 47.5844 20.3415 49.5147 19.1168 51.0357C18.2381 49.9418 17.1243 49.0799 15.8652 48.5085C17.0123 47.4912 17.75 46.0246 17.75 44.375C17.75 41.3165 15.2617 38.8281 12.2031 38.8281C9.14458 38.8281 6.65625 41.3165 6.65625 44.375C6.65625 46.0246 7.39398 47.4912 8.54108 48.5085C7.28194 49.081 6.16813 49.9418 5.2895 51.0357C4.06475 49.5147 3.32812 47.5844 3.32812 45.4844ZM8.875 44.375C8.875 42.5401 10.3682 41.0469 12.2031 41.0469C14.038 41.0469 15.5312 42.5401 15.5312 44.375C15.5312 46.2099 14.038 47.7031 12.2031 47.7031C10.3682 47.7031 8.875 46.2099 8.875 44.375ZM6.887 52.5744C8.13505 50.9192 10.0986 49.9219 12.2031 49.9219C14.3076 49.9219 16.2712 50.9192 17.5192 52.5744C16.036 53.6893 14.1989 54.3594 12.2031 54.3594C10.2074 54.3594 8.37023 53.6893 6.887 52.5744ZM30.1839 65.8869C31.4319 64.2317 33.3955 63.2344 35.5 63.2344C37.6045 63.2344 39.5681 64.2317 40.8161 65.8869C39.3329 67.0018 37.4958 67.6719 35.5 67.6719C33.5042 67.6719 31.6671 67.0018 30.1839 65.8869ZM32.1719 57.6875C32.1719 55.8526 33.6651 54.3594 35.5 54.3594C37.3349 54.3594 38.8281 55.8526 38.8281 57.6875C38.8281 59.5224 37.3349 61.0156 35.5 61.0156C33.6651 61.0156 32.1719 59.5224 32.1719 57.6875ZM42.4136 64.3482C41.535 63.2543 40.4212 62.3924 39.162 61.821C40.3091 60.8037 41.0469 59.3371 41.0469 57.6875C41.0469 54.629 38.5585 52.1406 35.5 52.1406C32.4415 52.1406 29.9531 54.629 29.9531 57.6875C29.9531 59.3371 30.6909 60.8037 31.838 61.821C30.5788 62.3935 29.465 63.2543 28.5864 64.3482C27.3616 62.8272 26.625 60.8969 26.625 58.7969C26.625 53.9034 30.6065 49.9219 35.5 49.9219C40.3935 49.9219 44.375 53.9034 44.375 58.7969C44.375 60.8969 43.6384 62.8272 42.4136 64.3482ZM46.5771 58.463C46.3985 52.5012 41.5039 47.7031 35.5 47.7031C29.4961 47.7031 24.6015 52.5012 24.4229 58.463C22.2984 57.4379 20.3437 56.1277 18.5732 54.5524C21.4254 52.5422 23.2969 49.2307 23.2969 45.4844C23.2969 39.3673 18.3202 34.3906 12.2031 34.3906C11.4554 34.3906 10.7265 34.4672 10.0199 34.6092C10.376 24.1333 16.959 15.0919 26.7692 11.5364C27.2052 13.9948 28.6518 16.1048 30.6687 17.4194C24.465 19.4562 19.9688 25.2949 19.9688 32.1719V34.3906H51.0312V32.1719C51.0312 25.2949 46.535 19.4562 40.3302 17.4194C42.3471 16.1048 43.7937 13.9948 44.2297 11.5364C54.041 15.0919 60.6229 24.1333 60.979 34.6092C60.2735 34.4672 59.5446 34.3906 58.7969 34.3906C52.6798 34.3906 47.7031 39.3673 47.7031 45.4844C47.7031 49.2296 49.5746 52.5422 52.4257 54.5513C50.6563 56.1277 48.7016 57.4379 46.5771 58.463ZM53.4808 52.5744C54.7288 50.9192 56.6924 49.9219 58.7969 49.9219C60.9014 49.9219 62.865 50.9192 64.113 52.5744C62.6298 53.6893 60.7926 54.3594 58.7969 54.3594C56.8011 54.3594 54.964 53.6893 53.4808 52.5744ZM55.4688 44.375C55.4688 42.5401 56.962 41.0469 58.7969 41.0469C60.6318 41.0469 62.125 42.5401 62.125 44.375C62.125 46.2099 60.6318 47.7031 58.7969 47.7031C56.962 47.7031 55.4688 46.2099 55.4688 44.375ZM65.7105 51.0357C64.8319 49.9418 63.7181 49.0799 62.4589 48.5085C63.606 47.4912 64.3438 46.0246 64.3438 44.375C64.3438 41.3165 61.8554 38.8281 58.7969 38.8281C55.7383 38.8281 53.25 41.3165 53.25 44.375C53.25 46.0246 53.9877 47.4912 55.1348 48.5085C53.8757 49.081 52.7619 49.9418 51.8833 51.0357C50.6585 49.5147 49.9219 47.5844 49.9219 45.4844C49.9219 40.5909 53.9034 36.6094 58.7969 36.6094C63.6903 36.6094 67.6719 40.5909 67.6719 45.4844C67.6719 47.5844 66.9352 49.5147 65.7105 51.0357Z" fill="#333333"/>
</svg>
