<svg width="76" height="76" viewBox="0 0 76 76" fill="none" xmlns="http://www.w3.org/2000/svg">
<path d="M74.8125 41.895V50.73L71.8556 51.7275C71.1906 54.8863 69.9675 57.855 68.21 60.5506L69.5875 63.3413L63.3413 69.5875L60.5506 68.21C57.855 69.9675 54.8863 71.1906 51.7275 71.8556L50.73 74.8125H41.895L40.8975 71.8556C37.7387 71.1906 34.77 69.9675 32.0744 68.21L29.2837 69.5875L24.0706 64.3744C25.3413 63.0919 26.125 61.3225 26.125 59.375V57C27.1344 57 28.0013 56.3587 28.3338 55.4681C31.6825 62.0112 38.4631 66.5 46.3125 66.5C57.4631 66.5 66.5 57.4631 66.5 46.3125C66.5 35.1619 57.4631 26.125 46.3125 26.125C42.2512 26.125 38.4869 27.3363 35.3281 29.3906L35.055 29.5331C35.435 28.1675 35.625 26.7544 35.625 25.3294C35.625 24.3912 35.53 23.4888 35.3756 22.61C37.145 21.7906 38.9975 21.1731 40.8975 20.7694L41.895 17.8125H50.73L51.7275 20.7694C54.8863 21.4344 57.855 22.6575 60.5506 24.415L63.3413 23.0375L69.5875 29.2837L68.21 32.0744C69.9675 34.77 71.1906 37.7387 71.8556 40.8975L74.8125 41.895Z" fill="#FD9B0D"/>
<path d="M46.3125 67.6875C38.2506 67.6875 30.9569 63.213 27.2804 56.0108L29.3954 54.9302C32.6646 61.3344 39.1471 65.3125 46.3125 65.3125C56.7886 65.3125 65.3125 56.7886 65.3125 46.3125C65.3125 35.8364 56.7886 27.3125 46.3125 27.3125C42.636 27.3125 39.0616 28.3765 35.9718 30.3869L35.6143 30.5829L34.4921 28.4905L34.7629 28.3456C38.152 26.1333 42.1764 24.9375 46.3125 24.9375C58.0984 24.9375 67.6875 34.5266 67.6875 46.3125C67.6875 58.0984 58.0984 67.6875 46.3125 67.6875Z" fill="black"/>
<path d="M48.6875 48.6875H58.1875V58.1875H48.6875V48.6875Z" fill="#FD9B0D"/>
<path d="M48.6875 34.4375H58.1875V43.9375H48.6875V34.4375Z" fill="#FD9B0D"/>
<path d="M17.8125 1.1875H20.1875V5.9375H17.8125V1.1875Z" fill="black"/>
<path d="M3.76299 6.59412L5.73875 5.27616L8.11503 8.83844L6.13928 10.1564L3.76299 6.59412Z" fill="black"/>
<path d="M29.8957 8.84521L32.272 5.28293L34.2477 6.60089L31.8715 10.1632L29.8957 8.84521Z" fill="black"/>
<path d="M46.6604 45.4729L44.6334 47.5H34.4375V59.375H46.3125V49.1791L48.3396 47.152L46.6604 45.4729ZM43.9375 57H36.8125V49.875H42.2584L38.3479 53.7854L40.0271 55.4645L43.9375 51.5541V57Z" fill="black"/>
<path d="M44.6334 33.25H34.8377C36.1166 30.8168 36.8125 28.0915 36.8125 25.3234C36.8125 15.9434 29.1816 8.3125 19.8016 8.3125H18.1984C8.81837 8.3125 1.1875 15.9434 1.1875 25.3234C1.1875 29.1709 2.51156 32.9448 4.91506 35.9516L7.98119 39.7836C9.47744 41.6539 10.393 43.9375 10.6246 46.3125H9.5C7.53587 46.3125 5.9375 47.9109 5.9375 49.875C5.9375 51.5173 7.05969 52.8901 8.57375 53.2997C8.40869 53.7106 8.3125 54.1559 8.3125 54.625C8.3125 56.1711 9.30881 57.4774 10.6875 57.969V59.375C10.6875 63.9576 14.4174 67.6875 19 67.6875C23.5826 67.6875 27.3125 63.9576 27.3125 59.375V57.969C28.6912 57.4774 29.6875 56.1711 29.6875 54.625C29.6875 54.1559 29.5913 53.7106 29.4263 53.2997C30.9403 52.8889 32.0625 51.5173 32.0625 49.875C32.0625 47.9109 30.4641 46.3125 28.5 46.3125H27.3754C27.607 43.9375 28.5226 41.6539 30.02 39.7836L33.0849 35.9504C33.5872 35.3222 34.0314 34.6524 34.4375 33.9637V45.125H46.3125V34.9291L48.3396 32.9021L46.6604 31.2229L44.6334 33.25ZM19 65.3125C15.7261 65.3125 13.0625 62.6489 13.0625 59.375V58.1875H24.9375V59.375C24.9375 62.6489 22.2739 65.3125 19 65.3125ZM26.125 55.8125H11.875C11.2195 55.8125 10.6875 55.2805 10.6875 54.625C10.6875 53.9695 11.2195 53.4375 11.875 53.4375H26.125C26.7805 53.4375 27.3125 53.9695 27.3125 54.625C27.3125 55.2805 26.7805 55.8125 26.125 55.8125ZM29.6875 49.875C29.6875 50.5305 29.1555 51.0625 28.5 51.0625H26.125H11.875H9.5C8.8445 51.0625 8.3125 50.5305 8.3125 49.875C8.3125 49.2195 8.8445 48.6875 9.5 48.6875H28.5C29.1555 48.6875 29.6875 49.2195 29.6875 49.875ZM13.0114 46.3125C12.7775 43.4447 11.6981 40.6826 9.91919 38.4132C9.94056 38.4085 9.95956 38.3978 9.98213 38.3943L14.3688 37.5048C14.4507 37.4811 14.5279 37.4466 14.6074 37.4181C15.3164 39.1507 17.0157 40.375 19 40.375C20.9831 40.375 22.6812 39.1531 23.3914 37.4098C23.5018 37.4502 23.6099 37.4953 23.7239 37.5286L28.0167 38.3943C28.0393 38.399 28.0594 38.4097 28.0808 38.4144C26.2996 40.6838 25.2213 43.4459 24.9874 46.3125H13.0114ZM13.0625 29.6875C12.407 29.6875 11.875 29.1555 11.875 28.5C11.875 27.8445 12.407 27.3125 13.0625 27.3125V29.6875ZM14.25 23.75H13.0625V24.9375C12.5341 24.9375 12.0377 25.0598 11.5864 25.2676L11.172 24.4376C10.8549 23.8034 10.6875 23.0945 10.6875 22.3891C10.6875 19.8657 12.7407 17.8125 15.2641 17.8125H22.7347C25.2593 17.8125 27.3125 19.8657 27.3125 22.3891C27.3125 23.0945 27.1451 23.8022 26.8292 24.4364L26.4136 25.2664C25.9623 25.0598 25.4659 24.9375 24.9375 24.9375V23.75H23.75C22.5874 23.75 21.4854 23.3059 20.6471 22.4984L19 20.9142L17.3529 22.4984C16.5146 23.3059 15.4126 23.75 14.25 23.75ZM24.9375 27.3125C25.593 27.3125 26.125 27.8445 26.125 28.5C26.125 29.1555 25.593 29.6875 24.9375 29.6875V27.3125ZM15.4375 29.6875V26.0229C16.7711 25.7901 18.0072 25.1655 19 24.2108C19.9939 25.1667 21.2289 25.7901 22.5625 26.0229V29.6875C22.5625 31.6516 20.9641 33.25 19 33.25C17.0359 33.25 15.4375 31.6516 15.4375 29.6875ZM19 35.625C19.6424 35.625 20.2504 35.4967 20.8299 35.3068C20.976 35.5573 21.1458 35.7913 21.3358 36.0109C21.1506 37.1355 20.1768 38 19 38C17.8256 38 16.853 37.1402 16.6642 36.0181C16.853 35.7972 17.024 35.5609 17.1713 35.3068C17.7507 35.4967 18.3576 35.625 19 35.625ZM31.2301 34.4672L29.6554 36.4373C29.2814 36.2757 28.8931 36.1475 28.4881 36.0656L24.2867 35.2224C23.6906 35.0514 23.2014 34.6524 22.8962 34.1323C23.5469 33.5611 24.0825 32.8652 24.4352 32.0625H24.9375C26.9016 32.0625 28.5 30.4641 28.5 28.5C28.5 27.9799 28.3824 27.4894 28.1806 27.0429L28.9536 25.4968C29.4334 24.5361 29.6875 23.4614 29.6875 22.3891C29.6875 18.5559 26.5691 15.4375 22.7359 15.4375H15.2653C11.4309 15.4375 8.3125 18.5559 8.3125 22.3891C8.3125 23.4602 8.56663 24.5361 9.04638 25.498L9.81825 27.0429C9.61756 27.4894 9.5 27.9799 9.5 28.5C9.5 30.4641 11.0984 32.0625 13.0625 32.0625H13.566C13.9187 32.8664 14.4554 33.5623 15.1062 34.1335C14.8069 34.6512 14.3355 35.0455 13.8071 35.1987L9.51069 36.0644C9.10694 36.1463 8.71981 36.2746 8.34575 36.4361L6.76994 34.4672C4.70131 31.882 3.5625 28.633 3.5625 25.3234C3.5625 17.2532 10.1282 10.6875 18.1984 10.6875H19.8016C27.8718 10.6875 34.4375 17.2532 34.4375 25.3234C34.4375 28.633 33.2987 31.882 31.2301 34.4672ZM43.9375 42.75H36.8125V35.625H42.2584L38.3479 39.5354L40.0271 41.2146L43.9375 37.3041V42.75Z" fill="black"/>
<path d="M48.6875 57H58.1875V59.375H48.6875V57Z" fill="black"/>
<path d="M48.6875 52.25H58.1875V54.625H48.6875V52.25Z" fill="black"/>
<path d="M48.6875 47.5H58.1875V49.875H48.6875V47.5Z" fill="black"/>
<path d="M48.6875 42.75H58.1875V45.125H48.6875V42.75Z" fill="black"/>
<path d="M48.6875 38H58.1875V40.375H48.6875V38Z" fill="black"/>
<path d="M48.6875 33.25H58.1875V35.625H48.6875V33.25Z" fill="black"/>
</svg>
