<svg width="76" height="76" viewBox="0 0 76 76" fill="none" xmlns="http://www.w3.org/2000/svg">
<path d="M42.9032 74.7742L40.4516 57.6129L42.9032 53.9355L38 51.4839L33.0968 53.9355L35.5484 57.6129L33.0968 74.7742H42.9032Z" fill="#FD9B0D"/>
<path d="M39.1659 0C35.7555 0 32.4509 0.99896 29.6133 2.89154L26.3901 5.04029C22.2692 6.74553 19.6129 10.7108 19.6129 15.1813V25.7419H20.8387C20.8387 23.0341 23.0341 20.8387 25.7419 20.8387V23.2903L25.861 23.267C29.7306 22.4925 33.18 20.3192 35.5484 17.1613L35.7531 17.366C38.7613 20.3742 42.8422 22.0645 47.0966 22.0645H50.2581V20.8387C52.9659 20.8387 55.1613 23.0341 55.1613 25.7419H56.3871V17.2211C56.3871 7.72653 48.6606 0 39.1659 0Z" fill="#FD9B0D"/>
<path d="M38 0C17.0458 0 0 17.0476 0 38C0 58.9524 17.0458 76 38 76C58.9542 76 76 58.9524 76 38C76 17.0476 58.9542 0 38 0ZM22.0645 25.7419C22.0645 24.1462 23.0928 22.7977 24.5161 22.2902V29.1925C23.0928 28.6861 22.0645 27.3376 22.0645 25.7419ZM26.9677 24.2576C30.3387 23.4005 33.3667 21.5653 35.6621 18.9623C38.82 21.7605 42.841 23.2891 47.0966 23.2891H49.0323V29.4182C49.0323 35.5005 44.0835 40.4504 38 40.4504C31.9165 40.4504 26.9677 35.5005 26.9677 29.4182V24.2576ZM51.4839 22.2902C52.9072 22.7977 53.9355 24.1462 53.9355 25.7419C53.9355 27.3376 52.9072 28.6861 51.4839 29.1937V22.2902ZM61.2903 64.8217C58.2378 67.4756 54.7321 69.616 50.9039 71.1141L52.76 63.6929L51.7574 60.6846L53.7799 59.6737L55.9777 49.7822L57.6494 50.2287C59.7934 50.7997 61.2903 52.7474 61.2903 54.9662V64.8217ZM51.6395 58.0026L48.7587 59.4432L50.2078 63.7898L48.1398 72.0652C47.2815 72.3214 46.4113 72.5458 45.529 72.7368L47.6275 47.5539L53.6069 49.149L51.6395 58.0026ZM44.6767 53.4513L40.0703 51.1481L44.4965 46.7219L45.2214 46.9152L44.6767 53.4513ZM38 42.9032C39.731 42.9032 41.3805 42.5639 42.9032 41.9665V44.8473L38 49.7505L33.0968 44.8473V41.9665C34.6195 42.5639 36.269 42.9032 38 42.9032ZM31.5047 46.7219L35.9309 51.1481L31.3245 53.4513L30.7798 46.914L31.5047 46.7219ZM28.3737 47.5563L30.4722 72.7392C29.5899 72.5482 28.7185 72.3238 27.8614 72.0676L25.7934 63.7922L27.2425 59.4456L24.3617 58.0049L22.3943 49.1526L28.3737 47.5563ZM20.0223 49.7834L22.2201 59.6749L24.2426 60.6858L23.24 63.6941L25.0961 71.1153C21.2679 69.616 17.7622 67.4756 14.7097 64.8217V54.9674C14.7097 52.7492 16.2066 50.8009 18.3506 50.2299L20.0223 49.7834ZM32.9681 73.1857L31.5424 56.083L38 52.8545L44.4576 56.083L43.0319 73.1857C41.3871 73.4197 39.7088 73.5484 38 73.5484C36.2912 73.5484 34.6129 73.4197 32.9681 73.1857ZM63.7419 62.4766V54.9662C63.7419 51.6395 61.4962 48.7174 58.2821 47.8603L45.3548 44.4133V40.7066C48.4134 38.7075 50.6052 35.5017 51.2654 31.7692C54.1647 31.285 56.3871 28.7759 56.3871 25.7419C56.3871 22.7828 54.2772 20.3066 51.4839 19.7368V17.1613H49.0323V20.8387H47.0966C43.1385 20.8387 39.4185 19.2981 36.6198 16.4993L35.4161 15.2956L34.568 16.4257C32.6568 18.9743 29.9946 20.8214 26.9677 21.7275V17.1613H24.5161V19.7368C21.7228 20.3066 19.6129 22.7816 19.6129 25.7419C19.6129 28.7759 21.8353 31.285 24.7346 31.7692C25.3936 35.5017 27.5866 38.7063 30.6452 40.7066V44.4133L17.7179 47.8603C14.5038 48.7174 12.2581 51.6395 12.2581 54.9662V62.4766C6.18889 56.098 2.45161 47.4791 2.45161 38C2.45161 18.3979 18.3991 2.45161 38 2.45161C57.6009 2.45161 73.5484 18.3979 73.5484 38C73.5484 47.4791 69.8111 56.098 63.7419 62.4766Z" fill="black"/>
</svg>
