<svg width="71" height="71" viewBox="0 0 71 71" fill="none" xmlns="http://www.w3.org/2000/svg">
<path d="M40.0806 20.5791H30.9193V53.7888H40.0806V20.5791Z" fill="#FD9B0D"/>
<path d="M36.6451 40.0812H34.3548V42.3715H36.6451V40.0812Z" fill="#333333"/>
<path d="M36.6451 46.9521H34.3548V49.2425H36.6451V46.9521Z" fill="#333333"/>
<path d="M36.6451 26.3392H34.3548V28.6296H36.6451V26.3392Z" fill="#333333"/>
<path d="M36.6451 33.2102H34.3548V35.5005H36.6451V33.2102Z" fill="#333333"/>
<path d="M59.3629 19.4682C61.6429 20.2275 64.0168 20.6122 66.4194 20.6122C68.9456 20.6122 71 18.5578 71 16.0316C71 13.5054 68.9456 11.451 66.4194 11.451C65.0016 11.451 63.5874 11.262 62.22 10.8887C55.23 8.98199 48.012 8.01547 40.7666 8.01547H40.0806V7.46465C40.4345 6.7661 40.6532 5.98854 40.6532 5.15371C40.6532 2.31257 38.3411 0.000488281 35.5 0.000488281C32.6589 0.000488281 30.3468 2.31257 30.3468 5.15371C30.3468 5.98854 30.5655 6.7661 30.9194 7.46465V8.01662H30.2334C22.988 8.01662 15.77 8.98313 8.77881 10.8898C7.41263 11.262 5.99835 11.451 4.58065 11.451C2.05442 11.451 0 13.5054 0 16.0316C0 18.5578 2.05442 20.6122 4.58065 20.6122C6.98319 20.6122 9.35711 20.2275 11.6371 19.4671C11.9555 19.3606 12.2761 19.2678 12.5968 19.1682V21.565L3.49961 47.7205L5.66282 48.4717L13.7419 25.2421L21.8222 48.4717L23.9854 47.7205L14.8871 21.565V18.5223C18.4348 17.6314 22.0753 17.1768 25.7512 17.1768H27.4839V21.7574H29.7742V52.8875C28.4447 53.3616 27.4839 54.6212 27.4839 56.1122V64.1284H16.0323V70.9993H54.9677V64.1284H43.5161V56.1122C43.5161 54.6212 42.5553 53.3616 41.2258 52.8875V21.7574H43.5161V17.1768H45.2488C48.9247 17.1768 52.5652 17.6314 56.1129 18.5223V21.565L47.0157 47.7205L49.179 48.4717L57.2581 25.2421L65.3383 48.4717L67.5015 47.7205L58.4032 21.565V19.1693C58.7227 19.269 59.0445 19.3629 59.3629 19.4682ZM66.4194 13.7413C67.6813 13.7413 68.7097 14.7685 68.7097 16.0316C68.7097 17.2936 67.6813 18.3219 66.4194 18.3219C64.263 18.3219 62.133 17.9761 60.0878 17.2959C59.5289 17.1092 58.9678 16.9363 58.4032 16.7714V12.303C59.4785 12.548 60.5515 12.8091 61.6177 13.0988C63.182 13.526 64.7978 13.7413 66.4194 13.7413ZM33.2097 9.74467C33.9025 10.0916 34.6732 10.3058 35.5 10.3058C36.3268 10.3058 37.0975 10.0916 37.7903 9.74467V14.8864H33.2097V9.74467ZM35.5 2.28967C37.0792 2.28967 38.3629 3.57339 38.3629 5.15257C38.3629 6.73175 37.0792 8.01547 35.5 8.01547C33.9208 8.01547 32.6371 6.73175 32.6371 5.15257C32.6371 3.57339 33.9208 2.28967 35.5 2.28967ZM10.9122 17.2959C8.86698 17.9761 6.73698 18.3219 4.58065 18.3219C3.31868 18.3219 2.29032 17.2936 2.29032 16.0316C2.29032 14.7685 3.31868 13.7413 4.58065 13.7413C6.20219 13.7413 7.81802 13.5248 9.38116 13.0977C10.4473 12.8068 11.5203 12.5469 12.5968 12.3018V16.7714C12.0334 16.9363 11.4711 17.1092 10.9122 17.2959ZM27.4839 14.8864H25.7512C22.0787 14.8864 18.4405 15.3205 14.8871 16.1667V11.8117C19.9384 10.8142 25.0779 10.3058 30.2334 10.3058H30.9194V14.8864H28.629H27.4839ZM52.6774 68.709H18.3226V66.4187H52.6774V68.709ZM29.7742 64.1284V61.8381H38.9355V59.5477H29.7742V56.1122C29.7742 55.4801 30.2872 54.9671 30.9194 54.9671H40.0806C40.7128 54.9671 41.2258 55.4801 41.2258 56.1122V64.1284H29.7742ZM38.9355 52.6768H32.0645V21.7574H38.9355V52.6768ZM41.2258 19.4671H29.7742V17.1768H30.9194H40.0806H41.2258V19.4671ZM45.2488 14.8864H43.5161H42.371H40.0806V10.3058H40.7666C45.9221 10.3058 51.0627 10.8142 56.1129 11.8117V16.1667C52.5595 15.3205 48.9213 14.8864 45.2488 14.8864Z" fill="#333333"/>
<path d="M13.7419 57.2575C6.67859 57.2575 1.14517 53.7361 1.14517 49.2414V46.951H26.3387V49.2414C26.3387 53.7361 20.8053 57.2575 13.7419 57.2575Z" fill="#FD9B0D"/>
<path d="M57.2581 57.2575C50.1947 57.2575 44.6613 53.7361 44.6613 49.2414V46.951H69.8549V49.2414C69.8549 53.7361 64.3214 57.2575 57.2581 57.2575Z" fill="#FD9B0D"/>
</svg>
